<?xml version="1.0" encoding="UTF-8"?>
<svg version="1.1" xmlns="http://www.w3.org/2000/svg" width="676" height="562">
<path d="M0 0 C2.25837317 -0.00346074 4.51674465 -0.0082281 6.77511263 -0.01418173 C12.95316038 -0.02666403 19.13106846 -0.0205339 25.3091166 -0.01122308 C31.2964003 -0.00512104 37.2836611 -0.01313596 43.27093951 -0.02066517 C56.26560274 -0.03642926 69.2602216 -0.03510646 82.254889 -0.02642844 C93.62696708 -0.0188716 104.99902893 -0.0169164 116.37110901 -0.02049637 C117.1264466 -0.02072552 117.88178418 -0.02095468 118.66001079 -0.02119078 C121.7264352 -0.02212485 124.79285961 -0.02308005 127.859284 -0.02407007 C156.60466627 -0.03324004 185.35002034 -0.02493785 214.09539825 -0.00877938 C239.61484278 0.00545666 265.13424239 0.00418274 290.65368652 -0.01016235 C319.34764084 -0.02623813 348.04157027 -0.03258962 376.73552847 -0.02332556 C379.79625542 -0.02236346 382.85698239 -0.02142494 385.91770935 -0.02049637 C386.67129774 -0.02025914 387.42488612 -0.0200219 388.20131052 -0.01977748 C399.56419128 -0.01636997 410.92705399 -0.02034673 422.28993225 -0.02793503 C435.21445749 -0.03652336 448.13893157 -0.03434583 461.06345046 -0.0180928 C467.65552321 -0.01007572 474.24752372 -0.00710546 480.8395977 -0.01704025 C486.87838211 -0.02600343 492.91699134 -0.02102734 498.95575994 -0.0051076 C501.13592431 -0.0017667 503.3161036 -0.00343821 505.49625832 -0.01073496 C524.81587599 -0.07041695 543.09266871 1.15607089 558.08190918 14.94345093 C571.37107422 29.3691893 573.10312807 46.93620132 573.02536011 65.59884644 C573.02882226 67.41984096 573.03359054 69.24083337 573.03954184 71.06182146 C573.05200494 76.03550374 573.04590289 81.00901216 573.03658319 85.98269486 C573.02977374 91.35837339 573.0402833 96.73402277 573.04852295 102.10969543 C573.06184227 112.62870048 573.05899056 123.14764121 573.05028503 133.66664875 C573.04350181 142.21791096 573.04259453 150.76915518 573.04585648 159.32041931 C573.04631617 160.53883885 573.04677587 161.75725839 573.0472495 163.01259974 C573.04820871 165.48802229 573.04918135 167.96344484 573.05016728 170.43886739 C573.0587159 193.63493137 573.04889531 216.83095975 573.03276618 240.02701789 C573.01936349 259.91763709 573.02169173 279.80820377 573.03552246 299.69882202 C573.05158759 322.81355068 573.05789197 345.92824816 573.04868567 369.04298162 C573.04773005 371.50914859 573.04678694 373.97531557 573.04585648 376.44148254 C573.04539365 377.65479107 573.04493082 378.8680996 573.04445397 380.11817506 C573.04186689 388.65625988 573.04622902 397.19432487 573.05329514 405.73240662 C573.06172068 416.14162378 573.05940778 426.5507731 573.0434529 436.95998251 C573.03558444 442.26791976 573.03245433 447.57574401 573.04240036 452.88368034 C573.05137722 457.74806583 573.04636528 462.61223416 573.0304677 467.47660011 C573.02713254 469.23080321 573.02878529 470.98502487 573.03609507 472.73921591 C573.10439991 490.50145568 570.62205912 507.20578817 558.08190918 520.81845093 C542.36028854 535.30139843 523.45377888 535.82889636 503.32641602 535.76190186 C501.05994361 535.76536191 498.79347289 535.7701288 496.52700567 535.77608359 C490.32196507 535.78857537 484.11706337 535.7824314 477.91202235 535.77312493 C471.90011791 535.76702625 465.88824215 535.77503581 459.87634338 535.78256703 C446.82710311 535.79833651 433.777907 535.79700616 420.72866257 535.78833029 C409.30886501 535.78077531 397.8890836 535.77881739 386.46928406 535.78239822 C385.71095991 535.78262738 384.95263577 535.78285653 384.1713321 535.78309263 C381.09283124 535.78402669 378.01433039 535.7849819 374.93582954 535.78597193 C346.07358309 535.79514317 317.21136472 535.78683767 288.34912261 535.77068123 C262.72243877 535.75644506 237.09579966 535.75771897 211.46911621 535.77206421 C182.65871638 535.78813782 153.84834134 535.79449268 125.03793764 535.78522742 C121.96513653 535.78426531 118.89233542 535.78332678 115.8195343 535.78239822 C114.68468139 535.78204238 114.68468139 535.78204238 113.52690215 535.78167934 C102.11596567 535.77827093 90.70504715 535.78225026 79.29411316 535.78983688 C66.31573639 535.79842276 53.33741058 535.79625291 40.35904014 535.77999465 C33.73874624 535.77197423 27.11852305 535.76901283 20.49822426 535.77894211 C14.43478019 535.78789859 8.3715107 535.78294016 2.3080824 535.76700945 C0.11781178 535.76366573 -2.07247367 535.76534647 -4.26273471 535.77263682 C-23.31171826 535.83116492 -41.02256228 534.42524086 -55.79309082 520.81845093 C-69.31652401 506.11616583 -70.81610271 488.08722482 -70.73654175 469.12545776 C-70.74000477 467.31256247 -70.74477363 465.49966929 -70.75072348 463.68678045 C-70.76317463 458.74009089 -70.75709005 453.79357635 -70.74776483 448.8468864 C-70.74095042 443.49847309 -70.75146738 438.15008895 -70.75970459 432.80168152 C-70.77301866 422.33795751 -70.77017455 411.8742982 -70.76146667 401.41057169 C-70.75468137 392.90367836 -70.75377706 384.3968031 -70.75703812 375.88990784 C-70.75749782 374.67746323 -70.75795751 373.46501863 -70.75843114 372.21583328 C-70.75939036 369.75249199 -70.760363 367.2891507 -70.76134892 364.82580942 C-70.769896 341.74702632 -70.76007937 318.66827902 -70.74394782 295.5895018 C-70.73054527 275.80268177 -70.73287355 256.01591454 -70.7467041 236.22909546 C-70.76277195 213.23081229 -70.76907209 190.23256047 -70.75986731 167.23427248 C-70.7589117 164.78017966 -70.75796859 162.32608684 -70.75703812 159.87199402 C-70.75657529 158.66464941 -70.75611246 157.4573048 -70.75563561 156.21337399 C-70.75304934 147.72033104 -70.75740889 139.22730804 -70.76447678 130.73426819 C-70.77290535 120.3789025 -70.77058308 110.02360501 -70.75463454 99.6682471 C-70.74677014 94.38853255 -70.74362898 89.10893154 -70.753582 83.82921791 C-70.76256735 78.98949198 -70.75753312 74.14998411 -70.74164934 69.31027776 C-70.73831775 67.56618091 -70.73995877 65.82206537 -70.74727671 64.0779807 C-70.81727207 45.99917891 -68.5832148 28.84850348 -55.79309082 14.94345093 C-39.87805888 0.30451081 -20.36624415 -0.06816365 0 0 Z " fill="#5F3209" transform="translate(87.3555908203125,13.619049072265625)"/>
<path d="M0 0 C1.11955078 0.88171875 1.11955078 0.88171875 2.26171875 1.78125 C4.3125 3.5 4.3125 3.5 5.70345867 5.08295375 C8.54734926 7.58750376 12.38651815 6.92863974 16.00271606 6.91459656 C17.35073345 6.92690826 17.35073345 6.92690826 18.7259835 6.93946868 C21.7498715 6.96322058 24.77338825 6.96537124 27.79736328 6.9675293 C29.96052232 6.97977487 32.12367483 6.99322634 34.28681946 7.00779724 C40.17342889 7.04292305 46.0599261 7.05811903 51.94662714 7.06763434 C55.62406846 7.07420313 59.30147985 7.08454569 62.97890854 7.09613991 C75.80789001 7.13590742 88.6367815 7.15790503 101.46582031 7.16577148 C113.42373795 7.17363809 125.38101341 7.22284603 137.33872616 7.29083699 C147.6029813 7.34716037 157.867023 7.37268478 168.13143146 7.37471896 C174.26267546 7.37656002 180.39324317 7.3912161 186.52432632 7.43753624 C192.29482307 7.48020357 198.06410313 7.48455735 203.834692 7.45974159 C205.94984376 7.45715662 208.06506379 7.46819075 210.18005943 7.49401855 C222.9561705 8.09874261 222.9561705 8.09874261 233.93429565 2.57698059 C235.08042209 1.23486025 236.20964342 -0.12210298 237.3125 -1.5 C239.70165879 -3.07774637 241.76032562 -4.30398103 244.3125 -5.5 C245.19679688 -5.92152344 246.08109375 -6.34304687 246.9921875 -6.77734375 C262.89848776 -13.90419257 277.9357178 -13.54499875 294.3125 -8.5 C298.03664655 -6.91314661 301.08503484 -4.92838215 304.3125 -2.5 C305.38242187 -1.73171875 306.45234375 -0.9634375 307.5546875 -0.171875 C320.00348575 8.93117602 326.92507545 18.1890035 332.3125 32.5 C332.85970703 33.923125 332.85970703 33.923125 333.41796875 35.375 C339.58635206 51.76463942 339.16894865 69.8059249 332.26171875 85.95703125 C331.61710181 87.25870947 330.94509099 88.54742351 330.23828125 89.81640625 C329.13410827 91.74337527 329.13410827 91.74337527 327.9375 94.9375 C323.05688262 105.63731503 323.05688262 105.63731503 318.4032135 108.79588318 C314.91293406 111.25731224 312.66703302 113.14282259 311.5639801 117.36538696 C311.28733609 120.89275132 311.25598289 124.34116686 311.3203125 127.87890625 C311.31740204 129.16433823 311.31449158 130.4497702 311.31149292 131.77415466 C311.30873471 134.48561297 311.3336608 137.19494249 311.37939453 139.90600586 C311.43623301 143.36907852 311.43066816 146.8286277 311.40521431 150.29196262 C311.38790629 153.61297509 311.41820736 156.93295317 311.4453125 160.25390625 C311.43944122 161.49153214 311.43356995 162.72915802 311.42752075 164.00428772 C311.45421302 171.28635524 311.45421302 171.28635524 315.26123047 177.15991211 C316.26814941 177.93214111 317.27506836 178.70437012 318.3125 179.5 C319.34607147 181.14605826 320.35310332 182.80963442 321.3125 184.5 C321.8075 184.995 322.3025 185.49 322.8125 186 C324.74890183 187.93640183 325.92566064 190.14840283 327.3125 192.5 C327.9725 193.16 328.6325 193.82 329.3125 194.5 C329.3125 195.49 329.3125 196.48 329.3125 197.5 C329.93125 197.7475 330.55 197.995 331.1875 198.25 C333.66318687 199.70628639 334.26375002 200.87812506 335.3125 203.5 C336.6325 203.5 337.9525 203.5 339.3125 203.5 C339.30139694 202.77052155 339.29029388 202.04104309 339.27885437 201.28945923 C339.17819114 194.37613012 339.10230261 187.46291216 339.05343914 180.54903603 C339.02747179 176.99542306 338.99231517 173.4424214 338.93530273 169.88916016 C338.87000317 165.79323852 338.84621371 161.69794739 338.82421875 157.6015625 C338.79841232 156.3407486 338.7726059 155.07993469 338.74601746 153.78091431 C338.74312026 144.57130618 340.71436859 138.25441716 346.26953125 130.9140625 C353.23087743 124.20185923 357.94574633 121.30101741 367.8125 121.125 C378.93769796 121.49914118 385.06383585 123.76413024 393.3125 131.5 C399.45474171 138.42970859 400.83156804 148.5028207 400.3125 157.5 C401.17875 157.04625 402.045 156.5925 402.9375 156.125 C410.41339088 152.52549699 417.06024487 151.42444656 425.3125 152.5 C435.51863987 156.18154724 442.32846642 162.99334137 447.3671875 172.38671875 C449.17330271 176.42435647 449.43266145 179.94835598 449.41015625 184.359375 C449.40693359 185.47441406 449.40371094 186.58945313 449.40039062 187.73828125 C449.39201172 188.89714844 449.38363281 190.05601562 449.375 191.25 C449.37048828 192.42433594 449.36597656 193.59867188 449.36132812 194.80859375 C449.34955094 197.70578072 449.33310326 200.60286454 449.3125 203.5 C450.35148438 203.45359375 451.39046875 203.4071875 452.4609375 203.359375 C462.39875939 203.04799787 470.43786031 203.64569014 478.6875 209.8125 C485.17331652 216.45274073 486.407935 222.36209827 486.3125 231.5 C485.75046715 237.90315994 483.67652954 243.70259109 479.3125 248.5 C471.90837855 254.02009055 466.1939214 255.66736615 457.0625 255.5625 C456.31742188 255.55798828 455.57234375 255.55347656 454.8046875 255.54882812 C452.9739236 255.53709246 451.14320127 255.5191585 449.3125 255.5 C449.33606567 256.51984985 449.33606567 256.51984985 449.36010742 257.56030273 C449.42305057 260.68594815 449.46167726 263.81145958 449.5 266.9375 C449.53770508 268.54141602 449.53770508 268.54141602 449.57617188 270.17773438 C449.6740242 280.84363827 447.4983108 288.52138848 440.3125 296.5 C433.99176152 302.92460038 427.96600262 306.69439312 418.8125 306.9375 C413.30109427 306.77145533 409.3042503 305.76897741 404.3125 303.5 C402.98559165 303.14194537 401.65323732 302.80217931 400.3125 302.5 C400.374375 303.44875 400.43625 304.3975 400.5 305.375 C400.46763673 313.40109105 397.28537385 322.22202804 392.3125 328.5 C382.2016273 337.24694266 374.8143708 338.17703215 361.70703125 337.33203125 C354.05714217 336.18116298 349.10253903 331.02118133 344.44921875 325.1484375 C340.3344441 319.2757997 339.18331558 314.79564838 339.19897461 307.6081543 C339.19905014 306.44732834 339.19912567 305.28650238 339.19920349 304.09049988 C339.20436478 302.84762711 339.20952606 301.60475433 339.21484375 300.32421875 C339.21696617 298.40377495 339.21696617 298.40377495 339.21913147 296.4445343 C339.22293603 293.0530296 339.23274857 289.66156823 339.24383545 286.27008057 C339.25409403 282.80440863 339.25863859 279.33872964 339.26367188 275.87304688 C339.27469245 269.08201252 339.2914243 262.29101019 339.3125 255.5 C335.33512182 256.98568733 332.57286482 258.76834299 329.3125 261.5 C326.20296621 263.0547669 323.74983239 262.78644437 320.3125 262.5 C314.62828947 259.44736842 314.62828947 259.44736842 313.3125 255.5 C302.61128015 255.49168805 291.91065873 255.51558544 281.20961666 255.5802784 C276.24028473 255.60931529 271.27142394 255.62737585 266.30200195 255.62011719 C261.50354277 255.61351599 256.70601394 255.63605381 251.90774727 255.67855453 C250.07982254 255.68967171 248.25180331 255.69039842 246.42387199 255.68042374 C243.85699708 255.66821532 241.29294648 255.69339223 238.72631836 255.72705078 C237.97537399 255.71482986 237.22442963 255.70260895 236.45072937 255.6900177 C231.15748001 255.81458999 228.62307708 257.3602392 224.9385767 261.14143181 C222.51624496 263.16526183 220.37634949 263.32628378 217.296875 263.10546875 C214.16917843 262.15115188 212.20363894 260.22075673 209.953125 257.91015625 C208.07736234 256.29789359 206.6953376 256.0172217 204.3125 255.5 C204.31694122 256.21330475 204.32138245 256.9266095 204.32595825 257.66152954 C204.36611272 264.39963656 204.39652382 271.13770994 204.41612434 277.87590981 C204.42654008 281.33968862 204.44065859 284.80336815 204.46337891 288.26708984 C204.48936317 292.25356844 204.49899109 296.24000752 204.5078125 300.2265625 C204.51813507 301.46427399 204.52845764 302.70198547 204.53909302 303.97720337 C204.53924408 305.1379538 204.53939514 306.29870422 204.53955078 307.49462891 C204.543992 308.51166901 204.54843323 309.52870911 204.55300903 310.5765686 C203.84202416 319.21872016 198.89337645 326.52327944 192.4375 332.0625 C190.890625 333.2690625 190.890625 333.2690625 189.3125 334.5 C190.91814211 338.17127899 193.201772 340.98705241 195.75 344.0625 C196.53246094 345.01253906 197.31492187 345.96257812 198.12109375 346.94140625 C200.1462873 349.39180061 200.1462873 349.39180061 201.91015625 351.02734375 C203.3125 352.5 203.3125 352.5 204.671875 354.8359375 C206.61015336 357.98333235 209.00802366 360.48543263 211.5625 363.125 C221.15371595 373.31904694 225.51053262 381.3317889 225.375 395.3125 C225.37048828 396.19615234 225.36597656 397.07980469 225.36132812 397.99023438 C225.34959866 400.16018559 225.33166495 402.33010172 225.3125 404.5 C226.03840332 404.47905273 226.76430664 404.45810547 227.51220703 404.43652344 C230.82049555 404.3530635 234.12856211 404.30124461 237.4375 404.25 C238.57960938 404.21648437 239.72171875 404.18296875 240.8984375 404.1484375 C251.50143249 404.02514686 251.50143249 404.02514686 256.3125 408.5 C258.85632364 411.22979508 260.18285273 414.01164932 260.5078125 417.7421875 C260.17695398 423.52248051 258.51742884 426.57539975 254.3125 430.5 C248.98109876 433.93175277 244.39161735 433.92692675 238.26100159 433.88768005 C237.25217657 433.89306559 236.24335154 433.89845113 235.20395607 433.90399987 C231.82538094 433.91830116 228.4471964 433.91117019 225.06860352 433.90405273 C222.64560633 433.90975514 220.22261183 433.91671889 217.79962158 433.92485046 C211.90251598 433.94094565 206.00550878 433.94287963 200.1083929 433.93763756 C195.31453445 433.93359366 190.52070746 433.93504202 185.72685051 433.94038582 C185.04417028 433.94113424 184.36149006 433.94188266 183.65812255 433.94265376 C182.27119287 433.94418526 180.88426319 433.94572361 179.49733352 433.94726873 C166.49554041 433.96099177 153.4938075 433.95555744 140.49201577 433.94408352 C128.60189089 433.93415099 116.71192162 433.94709243 104.82182074 433.97101771 C92.60727675 433.99541031 80.39280524 434.00501622 68.17823738 433.99836498 C61.32298281 433.99487315 54.46784791 433.99710239 47.61261177 434.01461601 C41.16688139 434.03087944 34.72137507 434.02615382 28.27565002 434.00731087 C25.90973913 434.00361892 23.54380629 434.00675098 21.17791557 434.01719666 C17.94859321 434.03036617 14.72026164 434.01889386 11.49098206 434.00120544 C10.55440044 434.01081045 9.61781881 434.02041546 8.65285593 434.03031152 C1.50182027 433.94970108 -2.71677461 432.23619444 -8.0625 427.3125 C-10.31377791 423.41605747 -11.01103842 419.99102136 -10.6875 415.5 C-9.06010381 410.6082385 -5.92284729 407.32381667 -1.6875 404.5 C1.2668457 404.04589844 1.2668457 404.04589844 4.48828125 404.109375 C6.22368164 404.12871094 6.22368164 404.12871094 7.99414062 404.1484375 C9.79141602 404.19871094 9.79141602 404.19871094 11.625 404.25 C12.84251953 404.26804687 14.06003906 404.28609375 15.31445312 404.3046875 C18.31460422 404.35174869 21.31314889 404.4174869 24.3125 404.5 C24.26029297 402.59927734 24.26029297 402.59927734 24.20703125 400.66015625 C24.17886763 398.96095089 24.15157025 397.26173102 24.125 395.5625 C24.09986328 394.73169922 24.07472656 393.90089844 24.04882812 393.04492188 C23.95428142 384.94542078 25.47447446 377.9448939 30.875 371.6875 C31.57882813 370.85476563 32.28265625 370.02203125 33.0078125 369.1640625 C33.76835937 368.28492188 34.52890625 367.40578125 35.3125 366.5 C36.96090469 364.52297444 38.60665291 362.54373154 40.25 360.5625 C41.08917969 359.55960937 41.92835938 358.55671875 42.79296875 357.5234375 C45.92763139 353.76184233 49.02192807 349.96835667 52.109375 346.16796875 C54.3125 343.5 54.3125 343.5 55.83081055 342.16894531 C61.89753911 336.4284247 61.86460774 328.73328871 62.625 320.875 C62.77950159 319.45546596 62.9363841 318.03618894 63.09570312 316.6171875 C63.38790468 314.01313856 63.66339656 311.40956173 63.92700195 308.80224609 C64.25623084 305.98201183 64.7385712 303.27696164 65.3125 300.5 C65.47791311 299.12749204 65.62142462 297.75215501 65.7421875 296.375 C65.814375 295.59632568 65.8865625 294.81765137 65.9609375 294.01538086 C66.11566474 292.29754172 66.26926031 290.57960037 66.421875 288.86157227 C66.8655733 284.15862239 67.44385037 279.54564175 68.3203125 274.90234375 C70.71806056 263.71603895 70.71806056 263.71603895 67.75 253 C66.04354326 250.54466656 64.20707215 248.3836591 62.19921875 246.16796875 C59.89164666 242.90488027 59.42554059 240.22573719 58.6875 236.3125 C57.10674093 229.33990621 54.36286232 225.67256914 48.9453125 220.87890625 C46.2935678 218.48289361 44.19509894 216.00224865 42 213.1875 C37.97254399 208.13708447 33.56923455 203.64544024 28.97167969 199.12573242 C25.5430378 195.74993954 22.28747298 192.30700528 19.16796875 188.640625 C16.69392392 185.78635855 14.12982317 183.02030392 11.5625 180.25 C11.04478027 179.69111084 10.52706055 179.13222168 9.99365234 178.55639648 C8.94292456 177.42215099 7.89214328 176.28795505 6.84130859 175.15380859 C4.50993205 172.63181167 2.19286456 170.09692417 -0.125 167.5625 C-4.76209132 162.49592411 -9.43876239 157.46740462 -14.12158203 152.44311523 C-16.96811558 149.3805463 -19.77185506 146.29437112 -22.5 143.125 C-23.03625 142.52558594 -23.5725 141.92617187 -24.125 141.30859375 C-25.6875 139.5 -25.6875 139.5 -27.25 137.34765625 C-32.25922007 131.16440023 -37.26351517 130.48647885 -44.76538086 129.49731445 C-56.3939206 127.96394621 -65.10485928 123.77363803 -74.12890625 116.48828125 C-76.50180344 114.49272411 -76.50180344 114.49272411 -78.77734375 113.5234375 C-90.18643197 107.41059269 -96.02057906 89.05005868 -99.6875 77.5 C-101.35956578 71.37963602 -102.04517361 65.58674415 -102 59.25 C-101.99508545 58.42443604 -101.9901709 57.59887207 -101.98510742 56.74829102 C-101.79153539 46.54257776 -99.75392802 37.6969638 -94.87109375 28.69921875 C-93.53982759 26.322209 -93.53982759 26.322209 -92.25 22.9375 C-85.61314516 8.33641936 -72.01758139 -3.12586958 -57.125 -8.875 C-55.32356001 -9.45238461 -53.51064803 -9.99533149 -51.6875 -10.5 C-50.83929688 -10.73589844 -49.99109375 -10.97179688 -49.1171875 -11.21484375 C-32.26012026 -15.06429343 -13.52954203 -10.76696538 0 0 Z " fill="#F6A064" transform="translate(140.6875,64.5)"/>
<path d="M0 0 C1.90265625 -0.03867188 1.90265625 -0.03867188 3.84375 -0.078125 C12.14840379 0.66716444 18.05546554 6.31984668 23.5 12.25 C27.11168069 18.16259476 28.62875965 24.05064033 28.61352539 30.93652344 C28.61344986 32.07740417 28.61337433 33.21828491 28.61329651 34.39373779 C28.60813522 35.61989807 28.60297394 36.84605835 28.59765625 38.109375 C28.59553383 39.99864716 28.59553383 39.99864716 28.59336853 41.92608643 C28.58872073 45.26665119 28.57974281 48.60714721 28.56866455 51.94769287 C28.55841598 55.3596538 28.55386354 58.77162185 28.54882812 62.18359375 C28.53779963 68.8724148 28.52106189 75.56120343 28.5 82.25 C29.82 82.58 31.14 82.91 32.5 83.25 C32.17 84.24 31.84 85.23 31.5 86.25 C31.40898856 87.68648686 31.37210646 89.12679581 31.37060547 90.56616211 C31.36587723 91.8678257 31.36587723 91.8678257 31.36105347 93.19578552 C31.3630777 94.13019974 31.36510193 95.06461395 31.3671875 96.02734375 C31.36623077 96.99023819 31.36527405 97.95313263 31.36428833 98.94520569 C31.36360774 100.98194443 31.36545362 103.01868535 31.36962891 105.05541992 C31.37497301 108.17176192 31.36968283 111.28795941 31.36328125 114.40429688 C31.36394217 116.38281282 31.36522361 118.36132867 31.3671875 120.33984375 C31.36415115 121.73842873 31.36415115 121.73842873 31.36105347 123.16526794 C31.36420563 124.03619583 31.36735779 124.90712372 31.37060547 125.80444336 C31.37140106 126.56816757 31.37219666 127.33189178 31.37301636 128.11875916 C31.50157141 130.27637392 31.90751755 132.17576007 32.5 134.25 C31.18 134.25 29.86 134.25 28.5 134.25 C28.50444122 134.96330475 28.50888245 135.6766095 28.51345825 136.41152954 C28.55361272 143.14963656 28.58402382 149.88770994 28.60362434 156.62590981 C28.61404008 160.08968862 28.62815859 163.55336815 28.65087891 167.01708984 C28.67686317 171.00356844 28.68649109 174.99000752 28.6953125 178.9765625 C28.70563507 180.21427399 28.71595764 181.45198547 28.72659302 182.72720337 C28.72674408 183.8879538 28.72689514 185.04870422 28.72705078 186.24462891 C28.731492 187.26166901 28.73593323 188.27870911 28.74050903 189.3265686 C28.02952416 197.96872016 23.08087645 205.27327944 16.625 210.8125 C15.078125 212.0190625 15.078125 212.0190625 13.5 213.25 C15.10564211 216.92127899 17.389272 219.73705241 19.9375 222.8125 C20.71996094 223.76253906 21.50242187 224.71257812 22.30859375 225.69140625 C24.3337873 228.14180061 24.3337873 228.14180061 26.09765625 229.77734375 C27.5 231.25 27.5 231.25 28.859375 233.5859375 C30.79765336 236.73333235 33.19552366 239.23543263 35.75 241.875 C45.34121595 252.06904694 49.69803262 260.0817889 49.5625 274.0625 C49.55798828 274.94615234 49.55347656 275.82980469 49.54882812 276.74023438 C49.53709866 278.91018559 49.51916495 281.08010172 49.5 283.25 C50.58885498 283.2185791 50.58885498 283.2185791 51.69970703 283.18652344 C55.00799555 283.1030635 58.31606211 283.05124461 61.625 283 C62.76710938 282.96648437 63.90921875 282.93296875 65.0859375 282.8984375 C75.68893249 282.77514686 75.68893249 282.77514686 80.5 287.25 C83.04382364 289.97979508 84.37035273 292.76164932 84.6953125 296.4921875 C84.36445398 302.27248051 82.70492884 305.32539975 78.5 309.25 C73.16859876 312.68175277 68.57911735 312.67692675 62.44850159 312.63768005 C61.43967657 312.64306559 60.43085154 312.64845113 59.39145607 312.65399987 C56.01288094 312.66830116 52.6346964 312.66117019 49.25610352 312.65405273 C46.83310633 312.65975514 44.41011183 312.66671889 41.98712158 312.67485046 C36.09001598 312.69094565 30.19300878 312.69287963 24.2958929 312.68763756 C19.50203445 312.68359366 14.70820746 312.68504202 9.91435051 312.69038582 C9.23167028 312.69113424 8.54899006 312.69188266 7.84562255 312.69265376 C6.45869287 312.69418526 5.07176319 312.69572361 3.68483352 312.69726873 C-9.31695959 312.71099177 -22.3186925 312.70555744 -35.32048423 312.69408352 C-47.21060911 312.68415099 -59.10057838 312.69709243 -70.99067926 312.72101771 C-83.20522325 312.74541031 -95.41969476 312.75501622 -107.63426262 312.74836498 C-114.48951719 312.74487315 -121.34465209 312.74710239 -128.19988823 312.76461601 C-134.64561861 312.78087944 -141.09112493 312.77615382 -147.53684998 312.75731087 C-149.90276087 312.75361892 -152.26869371 312.75675098 -154.63458443 312.76719666 C-157.86390679 312.78036617 -161.09223836 312.76889386 -164.32151794 312.75120544 C-165.25809956 312.76081045 -166.19468119 312.77041546 -167.15964407 312.78031152 C-174.31067973 312.69970108 -178.52927461 310.98619444 -183.875 306.0625 C-186.12627791 302.16605747 -186.82353842 298.74102136 -186.5 294.25 C-184.87260381 289.3582385 -181.73534729 286.07381667 -177.5 283.25 C-174.5456543 282.79589844 -174.5456543 282.79589844 -171.32421875 282.859375 C-169.58881836 282.87871094 -169.58881836 282.87871094 -167.81835938 282.8984375 C-166.02108398 282.94871094 -166.02108398 282.94871094 -164.1875 283 C-162.96998047 283.01804687 -161.75246094 283.03609375 -160.49804688 283.0546875 C-157.49789578 283.10174869 -154.49935111 283.1674869 -151.5 283.25 C-151.55220703 281.34927734 -151.55220703 281.34927734 -151.60546875 279.41015625 C-151.63363237 277.71095089 -151.66092975 276.01173102 -151.6875 274.3125 C-151.71263672 273.48169922 -151.73777344 272.65089844 -151.76367188 271.79492188 C-151.85821858 263.69542078 -150.33802554 256.6948939 -144.9375 250.4375 C-143.88175781 249.18839844 -143.88175781 249.18839844 -142.8046875 247.9140625 C-142.04414063 247.03492188 -141.28359375 246.15578125 -140.5 245.25 C-138.85159531 243.27297444 -137.20584709 241.29373154 -135.5625 239.3125 C-134.72332031 238.30960938 -133.88414062 237.30671875 -133.01953125 236.2734375 C-129.88486861 232.51184233 -126.79057193 228.71835667 -123.703125 224.91796875 C-121.5 222.25 -121.5 222.25 -119.98168945 220.91894531 C-113.91496089 215.1784247 -113.94789226 207.48328871 -113.1875 199.625 C-113.03299841 198.20546596 -112.8761159 196.78618894 -112.71679688 195.3671875 C-112.42459532 192.76313856 -112.14910344 190.15956173 -111.88549805 187.55224609 C-111.55626916 184.73201183 -111.0739288 182.02696164 -110.5 179.25 C-110.33458689 177.87749204 -110.19107538 176.50215501 -110.0703125 175.125 C-109.96203125 173.95698853 -109.96203125 173.95698853 -109.8515625 172.76538086 C-109.69683526 171.04754172 -109.54323969 169.32960037 -109.390625 167.61157227 C-108.9469267 162.90862239 -108.36864963 158.29564175 -107.4921875 153.65234375 C-105.09443944 142.46603895 -105.09443944 142.46603895 -108.0625 131.75 C-109.80111426 129.25122928 -111.65417825 127.07820138 -113.6875 124.8125 C-118.15214328 118.50041813 -119.19870049 110.09922476 -118.07421875 102.56640625 C-116.34460709 95.58912926 -112.81757989 90.12838659 -106.765625 86.09375 C-101.53907179 82.96675235 -97.76629372 82.11587746 -91.75 82.1875 C-90.76515625 82.19652344 -89.7803125 82.20554687 -88.765625 82.21484375 C-88.01796875 82.22644531 -87.2703125 82.23804688 -86.5 82.25 C-86.396875 81.5075 -86.29375 80.765 -86.1875 80 C-85.5 77.25 -85.5 77.25 -83.96484375 75.4140625 C-81.85999304 72.30449639 -82.10355206 69.25239413 -82.0625 65.625 C-81.57428824 54.12159144 -78.32560388 47.03339817 -70.2109375 38.609375 C-66.25282927 35.16456611 -62.57214916 33.45613311 -57.5 32.25 C-56.73300781 32.04503906 -55.96601563 31.84007812 -55.17578125 31.62890625 C-47.11674505 30.12366478 -39.91137929 33.39414852 -32.5 36.25 C-32.5825 35.198125 -32.665 34.14625 -32.75 33.0625 C-32.71962501 24.51194172 -29.77192451 15.5437617 -24.26953125 8.96875 C-16.81465637 1.72781193 -10.24541332 0.12494406 0 0 Z " fill="#FEE3C3" transform="translate(316.5,185.75)"/>
<path d="M0 0 C0.79664063 0.41572266 0.79664063 0.41572266 1.609375 0.83984375 C2.31578125 1.20207031 3.0221875 1.56429688 3.75 1.9375 C4.79414063 2.47697266 4.79414063 2.47697266 5.859375 3.02734375 C10.49944399 5.13569627 15.22109072 5.29117422 20.25 5.5625 C22.8075 5.706875 25.365 5.85125 28 6 C28.33 15.24 28.66 24.48 29 34 C28.34 34 27.68 34 27 34 C27.05220703 35.07701172 27.05220703 35.07701172 27.10546875 36.17578125 C27.3083563 43.93381475 26.52997133 51.13630183 25.1550293 58.7590332 C24.3287708 63.43948838 23.79989401 68.06797149 23.45288086 72.81054688 C23.36687119 73.97227417 23.28086151 75.13400146 23.19224548 76.33093262 C23.09708397 77.65212097 23.09708397 77.65212097 23 79 C23.76706268 78.98667633 24.53412537 78.97335266 25.32443237 78.95962524 C32.59101046 78.83887064 39.85709488 78.74778627 47.12441826 78.68912697 C50.85975185 78.65795411 54.59424916 78.61574573 58.32910156 78.54736328 C61.94073701 78.48165871 65.55157367 78.44618863 69.16376114 78.43073654 C70.53442062 78.41974051 71.90504161 78.39826916 73.27535629 78.36561966 C82.67261069 78.15084023 88.40716468 79.46252325 96 85 C104.24258638 88.85823192 113.50721511 87.22761571 122 85 C122.61875 85.81791016 122.61875 85.81791016 123.25 86.65234375 C127.03458507 91.59426845 130.97373939 96.29163854 135.203125 100.859375 C137 103 137 103 138.40625 105.4140625 C140.32688041 108.53037949 142.71982029 111.01053859 145.25 113.625 C154.84121595 123.81904694 159.19803262 131.8317889 159.0625 145.8125 C159.05798828 146.69615234 159.05347656 147.57980469 159.04882812 148.49023438 C159.03709866 150.66018559 159.01916495 152.83010172 159 155 C159.72590332 154.97905273 160.45180664 154.95810547 161.19970703 154.93652344 C164.50799555 154.8530635 167.81606211 154.80124461 171.125 154.75 C172.26710938 154.71648437 173.40921875 154.68296875 174.5859375 154.6484375 C185.18893249 154.52514686 185.18893249 154.52514686 190 159 C192.54382364 161.72979508 193.87035273 164.51164932 194.1953125 168.2421875 C193.86445398 174.02248051 192.20492884 177.07539975 188 181 C182.66859876 184.43175277 178.07911735 184.42692675 171.94850159 184.38768005 C170.93967657 184.39306559 169.93085154 184.39845113 168.89145607 184.40399987 C165.51288094 184.41830116 162.1346964 184.41117019 158.75610352 184.40405273 C156.33310633 184.40975514 153.91011183 184.41671889 151.48712158 184.42485046 C145.59001598 184.44094565 139.69300878 184.44287963 133.7958929 184.43763756 C129.00203445 184.43359366 124.20820746 184.43504202 119.41435051 184.44038582 C118.73167028 184.44113424 118.04899006 184.44188266 117.34562255 184.44265376 C115.95869287 184.44418526 114.57176319 184.44572361 113.18483352 184.44726873 C100.18304041 184.46099177 87.1813075 184.45555744 74.17951577 184.44408352 C62.28939089 184.43415099 50.39942162 184.44709243 38.50932074 184.47101771 C26.29477675 184.49541031 14.08030524 184.50501622 1.86573738 184.49836498 C-4.98951719 184.49487315 -11.84465209 184.49710239 -18.69988823 184.51461601 C-25.14561861 184.53087944 -31.59112493 184.52615382 -38.03684998 184.50731087 C-40.40276087 184.50361892 -42.76869371 184.50675098 -45.13458443 184.51719666 C-48.36390679 184.53036617 -51.59223836 184.51889386 -54.82151794 184.50120544 C-55.75809956 184.51081045 -56.69468119 184.52041546 -57.65964407 184.53031152 C-64.81067973 184.44970108 -69.02927461 182.73619444 -74.375 177.8125 C-76.62627791 173.91605747 -77.32353842 170.49102136 -77 166 C-75.37260381 161.1082385 -72.23534729 157.82381667 -68 155 C-65.0456543 154.54589844 -65.0456543 154.54589844 -61.82421875 154.609375 C-60.66728516 154.62226563 -59.51035156 154.63515625 -58.31835938 154.6484375 C-56.52108398 154.69871094 -56.52108398 154.69871094 -54.6875 154.75 C-53.46998047 154.76804687 -52.25246094 154.78609375 -50.99804688 154.8046875 C-47.99789578 154.85174869 -44.99935111 154.9174869 -42 155 C-42.05220703 153.09927734 -42.05220703 153.09927734 -42.10546875 151.16015625 C-42.13363237 149.46095089 -42.16092975 147.76173102 -42.1875 146.0625 C-42.21263672 145.23169922 -42.23777344 144.40089844 -42.26367188 143.54492188 C-42.35821858 135.44542078 -40.83802554 128.4448939 -35.4375 122.1875 C-34.38175781 120.93839844 -34.38175781 120.93839844 -33.3046875 119.6640625 C-32.54414063 118.78492188 -31.78359375 117.90578125 -31 117 C-29.35159531 115.02297444 -27.70584709 113.04373154 -26.0625 111.0625 C-25.22332031 110.05960937 -24.38414062 109.05671875 -23.51953125 108.0234375 C-20.38486861 104.26184233 -17.29057193 100.46835667 -14.203125 96.66796875 C-12 94 -12 94 -10.48168945 92.66894531 C-4.41496089 86.9284247 -4.44789226 79.23328871 -3.6875 71.375 C-3.53299841 69.95546596 -3.3761159 68.53618894 -3.21679688 67.1171875 C-2.92459532 64.51313856 -2.64910344 61.90956173 -2.38549805 59.30224609 C-2.05626916 56.48201183 -1.5739288 53.77696164 -1 51 C-0.83458689 49.62749204 -0.69107538 48.25215501 -0.5703125 46.875 C-0.49828613 46.09600342 -0.42625977 45.31700684 -0.35205078 44.5144043 C-0.27712402 43.68465088 -0.20219727 42.85489746 -0.125 42 C0.38502943 36.3828967 0.98949152 30.82368448 1.9375 25.26171875 C2.16977295 23.86276367 2.16977295 23.86276367 2.40673828 22.43554688 C2.71222273 20.64277683 3.03783039 18.85328586 3.38623047 17.06835938 C4.42805587 10.8587396 3.49623755 8.20477628 0 3 C0 2.01 0 1.02 0 0 Z " fill="#F5A063" transform="translate(207,314)"/>
<path d="M0 0 C9.30772103 6.19567385 13.95812317 12.10697178 16.47265625 23.0078125 C17.13781331 26.78196295 17.2203408 30.18075939 17 34 C17.86625 33.54625 18.7325 33.0925 19.625 32.625 C27.10089088 29.02549699 33.74774487 27.92444656 42 29 C52.20613987 32.68154724 59.01596642 39.49334137 64.0546875 48.88671875 C65.86080271 52.92435647 66.12016145 56.44835598 66.09765625 60.859375 C66.09282227 62.53193359 66.09282227 62.53193359 66.08789062 64.23828125 C66.07532227 65.97658203 66.07532227 65.97658203 66.0625 67.75 C66.05798828 68.92433594 66.05347656 70.09867187 66.04882812 71.30859375 C66.03705094 74.20578072 66.02060326 77.10286454 66 80 C67.03898438 79.95359375 68.07796875 79.9071875 69.1484375 79.859375 C79.08625939 79.54799787 87.12536031 80.14569014 95.375 86.3125 C101.86081652 92.95274073 103.095435 98.86209827 103 108 C102.43796715 114.40315994 100.36402954 120.20259109 96 125 C88.59587855 130.52009055 82.8814214 132.16736615 73.75 132.0625 C73.00492188 132.05798828 72.25984375 132.05347656 71.4921875 132.04882812 C69.6614236 132.03709246 67.83070127 132.0191585 66 132 C66.01571045 132.6798999 66.0314209 133.3597998 66.04760742 134.06030273 C66.11055057 137.18594815 66.14917726 140.31145958 66.1875 143.4375 C66.21263672 144.50677734 66.23777344 145.57605469 66.26367188 146.67773438 C66.3615242 157.34363827 64.1858108 165.02138848 57 173 C50.67926152 179.42460038 44.65350262 183.19439312 35.5 183.4375 C29.98859427 183.27145533 25.9917503 182.26897741 21 180 C19.67309165 179.64194537 18.34073732 179.30217931 17 179 C17.061875 179.94875 17.12375 180.8975 17.1875 181.875 C17.15513673 189.90109105 13.97287385 198.72202804 9 205 C-1.1108727 213.74694266 -8.4981292 214.67703215 -21.60546875 213.83203125 C-29.25535783 212.68116298 -34.20996097 207.52118133 -38.86328125 201.6484375 C-42.9780559 195.7757997 -44.12918442 191.29564838 -44.11352539 184.1081543 C-44.11344986 182.94732834 -44.11337433 181.78650238 -44.11329651 180.59049988 C-44.10813522 179.34762711 -44.10297394 178.10475433 -44.09765625 176.82421875 C-44.09553383 174.90377495 -44.09553383 174.90377495 -44.09336853 172.9445343 C-44.08956397 169.5530296 -44.07975143 166.16156823 -44.06866455 162.77008057 C-44.05840597 159.30440863 -44.05386141 155.83872964 -44.04882812 152.37304688 C-44.03780755 145.58201252 -44.0210757 138.79101019 -44 132 C-45.32 131.67 -46.64 131.34 -48 131 C-47.505 130.01 -47.505 130.01 -47 129 C-46.90996034 127.42708792 -46.88243491 125.85038425 -46.88647461 124.27490234 C-46.88655014 123.29403656 -46.88662567 122.31317078 -46.88670349 121.30258179 C-46.89186478 120.24108917 -46.89702606 119.17959656 -46.90234375 118.0859375 C-46.9037587 117.00116119 -46.90517365 115.91638489 -46.90663147 114.79873657 C-46.91224198 111.32413 -46.92479628 107.84958719 -46.9375 104.375 C-46.94251365 102.02343843 -46.94707679 99.67187585 -46.95117188 97.3203125 C-46.96221482 91.54685314 -46.97896321 85.77343112 -47 80 C-46.01 80 -45.02 80 -44 80 C-44.01110306 79.27052155 -44.02220612 78.54104309 -44.03364563 77.78945923 C-44.13430886 70.87613012 -44.21019739 63.96291216 -44.25906086 57.04903603 C-44.28502821 53.49542306 -44.32018483 49.9424214 -44.37719727 46.38916016 C-44.44249683 42.29323852 -44.46628629 38.19794739 -44.48828125 34.1015625 C-44.51408768 32.8407486 -44.5398941 31.57993469 -44.56648254 30.28091431 C-44.56937974 21.07130618 -42.59813141 14.75441716 -37.04296875 7.4140625 C-26.71774971 -2.54162239 -13.82509116 -5.62376589 0 0 Z " fill="#FEE3C3" transform="translate(524,188)"/>
<path d="M0 0 C0.71793228 0.27152893 1.43586456 0.54305786 2.17555237 0.82281494 C2.99442177 1.13433502 2.99442177 1.13433502 3.82983398 1.45214844 C3.83203382 2.61060713 3.83203382 2.61060713 3.83427811 3.79246902 C3.87140262 22.62356267 3.93049195 41.45447168 4.01373672 60.28541946 C4.05346976 69.39210539 4.08589131 78.49870561 4.10083008 87.60546875 C4.11387642 95.54710344 4.1409168 103.48854911 4.18444705 111.43007731 C4.2069951 115.6313096 4.22274869 119.83230933 4.22171783 124.03360748 C4.22096726 127.9965658 4.2390758 131.95901136 4.27100182 135.92183685 C4.27944707 137.36807411 4.28128771 138.81436924 4.27563667 140.26062012 C4.23319266 152.80418367 6.60255077 161.5544028 12.82983398 172.45214844 C-7.96016602 172.45214844 -28.75016602 172.45214844 -50.17016602 172.45214844 C-50.17016602 164.39204565 -50.16735099 157.64788183 -48.73266602 149.95214844 C-47.43509619 142.44558986 -46.56664907 135.06735735 -46.17016602 127.45214844 C-45.51016602 127.45214844 -44.85016602 127.45214844 -44.17016602 127.45214844 C-44.33315186 126.90848633 -44.4961377 126.36482422 -44.6640625 125.8046875 C-45.2506582 123.07799372 -45.2826585 120.60073551 -45.26782227 117.81152344 C-45.26459961 116.74160156 -45.26137695 115.67167969 -45.25805664 114.56933594 C-45.24548828 112.90257812 -45.24548828 112.90257812 -45.23266602 111.20214844 C-45.2281543 110.07550781 -45.22364258 108.94886719 -45.21899414 107.78808594 C-45.20721999 105.00938627 -45.19077441 102.23079434 -45.17016602 99.45214844 C-46.20915039 99.49855469 -47.24813477 99.54496094 -48.31860352 99.59277344 C-58.26020188 99.9042689 -66.18658624 99.22323996 -74.54516602 93.26464844 C-80.28665777 87.11305013 -82.26214582 79.769751 -82.17016602 71.45214844 C-81.61489876 64.44632968 -78.92073645 58.63458891 -74.17016602 53.45214844 C-68.16518265 49.08110335 -62.80235805 47.3017652 -55.42016602 47.38964844 C-54.43532227 47.39867187 -53.45047852 47.40769531 -52.43579102 47.41699219 C-51.31430664 47.43439453 -51.31430664 47.43439453 -50.17016602 47.45214844 C-50.06704102 46.70964844 -49.96391602 45.96714844 -49.85766602 45.20214844 C-49.17016602 42.45214844 -49.17016602 42.45214844 -47.63500977 40.61621094 C-45.53015906 37.50664483 -45.77371808 34.45454257 -45.73266602 30.82714844 C-45.24430024 19.32011074 -41.98812803 12.25257863 -33.89282227 3.81152344 C-23.87616626 -4.86862036 -11.78018226 -4.46666183 0 0 Z " fill="#FEE3C3" transform="translate(280.170166015625,220.5478515625)"/>
<path d="M0 0 C61.05 0 122.1 0 185 0 C184.01 5.61 183.02 11.22 182 17 C181.64310801 24.78024531 182.05448363 31.71988948 183.5625 39.34375 C183.99236427 41.95364019 184.03091192 44.36144681 184 47 C164.38937396 47.30428386 144.77922974 47.53321625 125.16672897 47.67355824 C116.05924103 47.74046754 106.95322347 47.83160758 97.84667969 47.98071289 C89.90513313 48.11068072 81.96465168 48.19424711 74.02207112 48.22315043 C69.81955218 48.24003661 65.62007887 48.27942853 61.41854095 48.37449074 C33.80089686 48.9756704 33.80089686 48.9756704 27.33508301 44.16659546 C24.16251338 41.12843802 22.1123182 37.83095921 20 34 C18.8274361 32.57398666 17.62760233 31.1687476 16.375 29.8125 C15.85164062 29.18988281 15.32828125 28.56726563 14.7890625 27.92578125 C12.95767809 25.8768616 12.95767809 25.8768616 10.4609375 23.85546875 C1.38819731 15.97238182 2.55979573 13.6522439 0 0 Z " fill="#F0C09E" transform="translate(166,100)"/>
<path d="M0 0 C12.23052934 -0.25530377 24.46042112 -0.45053716 36.69307613 -0.56993389 C42.37389935 -0.62725155 48.0528948 -0.70493753 53.73266602 -0.82983398 C59.21823016 -0.94969963 64.70204117 -1.01519552 70.18881416 -1.04364967 C72.27776246 -1.06391518 74.36661879 -1.10349342 76.45481682 -1.16303062 C93.66331365 -1.63397988 93.66331365 -1.63397988 98.3039856 2.41659546 C101.3878374 6.09033045 103.48451897 9.4535569 105 14 C105.99 14.66 106.98 15.32 108 16 C108.61875 17.36125 108.61875 17.36125 109.25 18.75 C111.21531664 22.39987376 113.3111625 24.15310971 116.57421875 26.60546875 C117.04472656 27.06566406 117.51523437 27.52585937 118 28 C118 28.99 118 29.98 118 31 C118.99 31.33 119.98 31.66 121 32 C121 36.95 121 41.9 121 47 C72.49 47 23.98 47 -26 47 C-26 42.05 -26 37.1 -26 32 C-25.01 31.67 -24.02 31.34 -23 31 C-23 30.01 -23 29.02 -23 28 C-20.625 25.3125 -20.625 25.3125 -18 23 C-17.34 23 -16.68 23 -16 23 C-15.88519287 22.40904541 -15.77038574 21.81809082 -15.65209961 21.20922852 C-14.95452162 18.84592516 -14.10829085 17.55494576 -12.56640625 15.65234375 C-12.08236328 15.04712891 -11.59832031 14.44191406 -11.09960938 13.81835938 C-10.59236328 13.19767578 -10.08511719 12.57699219 -9.5625 11.9375 C-8.56293024 10.69731677 -7.56420099 9.45645553 -6.56640625 8.21484375 C-6.12240479 7.66948975 -5.67840332 7.12413574 -5.22094727 6.56225586 C-4.07463488 5.09549862 -3.03260818 3.54891227 -2 2 C-1.34 2 -0.68 2 0 2 C0 1.34 0 0.68 0 0 Z " fill="#F0C09E" transform="translate(218,422)"/>
<path d="M0 0 C7.75269118 9.90895985 8.9349994 23.18889266 7.83984375 35.3515625 C6.77070666 40.79345674 5.32560136 46.38004729 2.83984375 51.3515625 C2.17984375 51.3515625 1.51984375 51.3515625 0.83984375 51.3515625 C0.61296875 51.8878125 0.38609375 52.4240625 0.15234375 52.9765625 C-2.61763475 57.98890455 -5.98094775 61.83194755 -11.16015625 64.3515625 C-11.82015625 64.3515625 -12.48015625 64.3515625 -13.16015625 64.3515625 C-13.16015625 65.0115625 -13.16015625 65.6715625 -13.16015625 66.3515625 C-23.65137733 70.58840178 -35.43132835 70.914593 -46.16015625 67.3515625 C-47.51366219 66.72686745 -48.85950108 66.0799294 -50.16015625 65.3515625 C-50.16015625 64.6915625 -50.16015625 64.0315625 -50.16015625 63.3515625 C-51.18109375 63.073125 -51.18109375 63.073125 -52.22265625 62.7890625 C-60.69795841 58.64157421 -64.70150126 50.79377467 -68.16015625 42.3515625 C-71.6106925 32.11552195 -70.89113298 21.41276309 -67.16015625 11.3515625 C-60.68021374 -1.50616126 -53.39582007 -8.18694719 -40.16015625 -13.6484375 C-25.90534121 -18.19614902 -9.55314977 -10.33053086 0 0 Z " fill="#EFC1A0" transform="translate(443.16015625,95.6484375)"/>
<path d="M0 0 C6.14970659 5.5331448 9.22266061 10.38813786 10.8359375 18.44140625 C11.38195544 19.94748416 11.94431611 21.44774475 12.5234375 22.94140625 C15.17328767 30.86306359 13.97468472 38.53567991 11.8359375 46.44140625 C11.1759375 46.44140625 10.5159375 46.44140625 9.8359375 46.44140625 C9.8153125 47.39015625 9.7946875 48.33890625 9.7734375 49.31640625 C8.84729617 55.9067743 3.95142517 61.4291131 -0.7265625 65.87890625 C-3.44733376 67.62299039 -6.26250662 69.02286782 -9.1640625 70.44140625 C-9.8240625 71.10140625 -10.4840625 71.76140625 -11.1640625 72.44140625 C-21.26091871 74.79935471 -34.65561873 74.9987077 -44.1640625 70.44140625 C-46.42578125 68.9609375 -46.42578125 68.9609375 -48.1640625 67.44140625 C-48.1640625 66.78140625 -48.1640625 66.12140625 -48.1640625 65.44140625 C-48.7621875 65.17328125 -49.3603125 64.90515625 -49.9765625 64.62890625 C-54.36061691 62.248991 -56.05209256 59.05014309 -58.2265625 54.62890625 C-58.73316406 53.61183594 -59.23976563 52.59476563 -59.76171875 51.546875 C-65.8611661 38.03974229 -65.26198231 25.20067477 -60.1640625 11.44140625 C-58.5703125 9.6484375 -58.5703125 9.6484375 -57.1640625 8.44140625 C-56.9371875 7.69890625 -56.7103125 6.95640625 -56.4765625 6.19140625 C-53.14957706 -0.77942039 -45.12122209 -5.6607169 -38.1640625 -8.55859375 C-23.71344212 -12.87445511 -11.5129913 -9.65640474 0 0 Z " fill="#EFC1A0" transform="translate(130.1640625,91.55859375)"/>
<path d="M0 0 C18.55848489 -0.09343348 37.11692207 -0.16397434 55.67559338 -0.20724869 C64.29267933 -0.22787563 72.90961916 -0.25599867 81.52661133 -0.30175781 C89.03702352 -0.34162164 96.54732989 -0.36743186 104.05784494 -0.37635398 C108.03480746 -0.38156954 112.01146724 -0.39383043 115.98833275 -0.42292023 C119.73201959 -0.45008236 123.47527915 -0.45844353 127.21905518 -0.45243073 C129.2470698 -0.45405483 131.27503796 -0.47557346 133.30293274 -0.49768066 C134.51303009 -0.49218201 135.72312744 -0.48668335 136.96989441 -0.48101807 C138.54477772 -0.48654882 138.54477772 -0.48654882 140.15147686 -0.49219131 C143.74613982 0.12892419 145.42759994 1.45855719 148 4 C148.62818909 6.66273499 148.62818909 6.66273499 148.63110352 9.73071289 C148.64363663 10.8819313 148.65616974 12.03314972 148.66908264 13.21925354 C148.65582443 14.45787643 148.64256622 15.69649933 148.62890625 16.97265625 C148.63131821 18.24725204 148.63373016 19.52184784 148.63621521 20.83506775 C148.63523545 23.52998218 148.62440395 26.22267958 148.59692383 28.91723633 C148.56280474 32.36998595 148.56887193 35.82125051 148.5875864 39.27407169 C148.60069583 42.56951993 148.58244446 45.86474018 148.56640625 49.16015625 C148.57136612 50.40080338 148.57632599 51.6414505 148.58143616 52.91969299 C148.56559982 54.06775925 148.54976349 55.2158255 148.53344727 56.39868164 C148.5241494 57.91613731 148.5241494 57.91613731 148.5146637 59.46424866 C148 62 148 62 146.06040955 63.7016449 C145.04050682 64.34433067 145.04050682 64.34433067 144 65 C142.96210419 66.64333504 141.96432076 68.31243867 141 70 C139.67618483 71.67423683 138.34423339 73.34211215 137 75 C136.67 75.66 136.34 76.32 136 77 C135.34 77 134.68 77 134 77 C133.76023437 77.54140625 133.52046875 78.0828125 133.2734375 78.640625 C131.67112647 81.60932396 129.72611187 84.11139439 127.625 86.75 C126.85414063 87.73484375 126.08328125 88.7196875 125.2890625 89.734375 C123 92 123 92 119 92 C118.99453156 90.96548958 118.99453156 90.96548958 118.98895264 89.91007996 C118.9508587 83.36455243 118.89376757 76.81948636 118.81609726 70.27430248 C118.776829 66.91047086 118.74454097 63.5468929 118.72900391 60.18286133 C118.70744222 56.30247739 118.66072075 52.42305944 118.609375 48.54296875 C118.60814636 47.35293747 118.60691772 46.16290619 118.60565186 44.93681335 C118.43210987 34.90067103 116.60905668 25.88777812 109.5078125 18.4296875 C102.21250086 11.51237128 96.52814246 10.59212987 86.66015625 10.82421875 C78.04927473 11.23776162 72.07685475 13.71399919 66 20 C61.9085635 26.06101139 59.83697592 32.98066113 58 40 C56.865625 39.690625 55.73125 39.38125 54.5625 39.0625 C50.56114213 38.08425005 46.99839507 38.0651093 42.89477539 38.21508789 C37.30791889 38.30345427 32.81326427 38.24953472 28.62109375 34.2109375 C25.99545703 31.24956089 23.69201079 28.06236501 21.39404297 24.84375 C19.2462861 22.00314407 16.75579855 19.58153775 14.1875 17.125 C2.96138528 6.1097805 2.96138528 6.1097805 0 0 Z " fill="#5F320A" transform="translate(226,176)"/>
<path d="M0 0 C2.99693138 0.99897713 4.02709413 1.65130253 6 4 C6 4.66 6 5.32 6 6 C6.99 6.33 7.98 6.66 9 7 C10.47265625 8.42578125 10.47265625 8.42578125 12.0625 10.3125 C12.97322266 11.38371094 12.97322266 11.38371094 13.90234375 12.4765625 C15.4380486 14.32398398 16.97160025 16.17319594 18.50390625 18.0234375 C18.93759521 18.54639404 19.37128418 19.06935059 19.81811523 19.6081543 C21.07300346 21.12466316 22.32179367 22.64621177 23.5703125 24.16796875 C25.93669635 26.9262136 28.39786589 29.46428673 31 32 C33.17124711 34.12037473 35.3365431 36.24668045 37.5 38.375 C38.05558594 38.91382813 38.61117187 39.45265625 39.18359375 40.0078125 C42.96366505 43.74341237 45.95633323 47.64660206 49 52 C50.65385233 53.34919532 52.321702 54.68133728 54 56 C55.79044864 57.95053582 57.50502172 59.95451571 59.21875 61.97265625 C60.87903871 63.86232695 62.61121679 65.58528404 64.4375 67.3125 C67 70 67 70 67 73 C66.360625 73.103125 65.72125 73.20625 65.0625 73.3125 C64.381875 73.539375 63.70125 73.76625 63 74 C62.505 75.485 62.505 75.485 62 77 C60.36328125 78.578125 60.36328125 78.578125 58.3125 80.25 C49.77278102 87.57193374 42.78258105 96.54953817 41 108 C37.66489696 106.88829899 36.89635827 106.00531858 34.6875 103.375 C34.07519531 102.65441406 33.46289062 101.93382812 32.83203125 101.19140625 C32.22746094 100.46824219 31.62289062 99.74507813 31 99 C29.96039578 97.76908847 28.91887346 96.53979309 27.875 95.3125 C27.43929687 94.79300781 27.00359375 94.27351563 26.5546875 93.73828125 C25.33474415 92.37427423 24.05960663 91.05960663 22.765625 89.765625 C19.3922371 86.3922371 16.13294494 82.92196871 12.875 79.4375 C12.21628906 78.73367187 11.55757812 78.02984375 10.87890625 77.3046875 C-3.48387144 61.93790982 -3.48387144 61.93790982 -9.75 54.6875 C-11.91349975 52.1891729 -14.1449428 49.81858508 -16.5 47.5 C-19.04197292 44.97535872 -21.55769821 42.43409776 -24 39.8125 C-24.598125 39.17957031 -25.19625 38.54664063 -25.8125 37.89453125 C-27 36 -27 36 -27 34.015625 C-25.57369368 31.14072633 -23.56753239 29.84531921 -21 27.9375 C-11.23206598 20.18396483 -5.04851002 11.34429898 0 0 Z " fill="#F0C09E" transform="translate(164,152)"/>
<path d="M0 0 C2.41266873 -0.03814817 4.82705733 -0.01042501 7.23852539 0.07470703 C8.52304092 0.07745636 9.80755646 0.08020569 11.1309967 0.08303833 C13.82813413 0.0923465 16.52039764 0.14140755 19.21630859 0.22265625 C22.66622823 0.32534219 26.11088596 0.34752005 29.56215572 0.34298515 C32.87164854 0.34500876 36.17942063 0.39799066 39.48852539 0.44970703 C41.34162575 0.45972244 41.34162575 0.45972244 43.23216248 0.46994019 C46.40350245 0.57592431 49.30942508 0.73352054 52.39868164 1.45751953 C54.95556641 4.20800781 54.95556641 4.20800781 56.39868164 7.45751953 C57.12933838 8.23740234 57.85999512 9.01728516 58.61279297 9.82080078 C61.01109542 13.36169845 60.98347711 16.51077876 60.97290039 20.64501953 C60.98706497 21.42514404 61.00122955 22.20526855 61.01582336 23.0090332 C61.05759635 25.49200309 61.07293175 27.97424845 61.08618164 30.45751953 C61.11532743 32.9404517 61.14997817 35.42320481 61.18867493 37.90600586 C61.21099115 39.44742731 61.2269138 40.98895861 61.23551941 42.53051758 C61.27398176 46.38104732 61.63551362 49.64167943 62.39868164 53.45751953 C35.66868164 53.45751953 8.93868164 53.45751953 -18.60131836 53.45751953 C-17.36070809 3.83310874 -17.36070809 3.83310874 0 0 Z " fill="#E0D0BB" transform="translate(390.601318359375,266.54248046875)"/>
<path d="M0 0 C0.99 0 1.98 0 3 0 C3.00146656 0.77230579 3.00293312 1.54461159 3.00444412 2.34032059 C3.04156864 21.17141424 3.10065796 40.00232325 3.18390274 58.83327103 C3.22363578 67.93995695 3.25605732 77.04655717 3.27099609 86.15332031 C3.28404243 94.094955 3.31108282 102.03640067 3.35461307 109.97792888 C3.37716111 114.17916116 3.3929147 118.38016089 3.39188385 122.58145905 C3.39113327 126.54441736 3.40924181 130.50686292 3.44116783 134.46968842 C3.44961309 135.91592567 3.45145373 137.36222081 3.44580269 138.80847168 C3.40335868 151.35203523 5.77271678 160.10225437 12 171 C-8.79 171 -29.58 171 -51 171 C-51 162.93989722 -50.99718498 156.19573339 -49.5625 148.5 C-48.26493018 140.99344143 -47.39648305 133.61520892 -47 126 C-46.01 126 -45.02 126 -44 126 C-43.70867187 126.56847656 -43.41734375 127.13695312 -43.1171875 127.72265625 C-39.04407686 135.39496213 -34.54568318 142.86863956 -26 146 C-15.73905299 148.90222496 -12.02978044 147.67659348 -1 144 C-0.67 96.48 -0.34 48.96 0 0 Z " fill="#EFC09E" transform="translate(281,222)"/>
<path d="M0 0 C0.33 0 0.66 0 1 0 C1 20.13 1 40.26 1 61 C-19.6953125 61 -19.6953125 61 -28.375 54.8125 C-34.11649176 48.66090169 -36.09197981 41.31760256 -36 33 C-35.44473275 25.99418124 -32.75057044 20.18244047 -28 15 C-21.99501663 10.62895491 -16.63219203 8.84961676 -9.25 8.9375 C-8.26515625 8.94652344 -7.2803125 8.95554687 -6.265625 8.96484375 C-5.14414063 8.98224609 -5.14414063 8.98224609 -4 9 C-3.8659375 8.22269531 -3.731875 7.44539063 -3.59375 6.64453125 C-2.94001974 3.73285106 -1.96657254 2.2123941 0 0 Z " fill="#E0D0BA" transform="translate(234,259)"/>
<path d="M0 0 C20.93046358 0 20.93046358 0 29.375 6.3125 C35.86081652 12.95274073 37.095435 18.86209827 37 28 C36.43796715 34.40315994 34.36402954 40.20259109 30 45 C19.75821374 52.63569154 13.80770327 52 0 52 C0 34.84 0 17.68 0 0 Z " fill="#DFCFB9" transform="translate(590,268)"/>
<path d="M0 0 C1.55972244 -0.01652729 3.11937014 -0.04377525 4.67871094 -0.08203125 C6.92894727 -0.13696166 9.17740503 -0.1586989 11.42822266 -0.17333984 C12.12111389 -0.19600922 12.81400513 -0.21867859 13.52789307 -0.24203491 C17.3843179 -0.22530794 18.93962111 0.21629131 21.93969727 2.71777344 C22.65262939 3.58644043 23.36556152 4.45510742 24.10009766 5.35009766 C24.83873047 6.22150391 25.57736328 7.09291016 26.33837891 7.99072266 C27.36511719 9.28236328 27.36511719 9.28236328 28.41259766 10.60009766 C29.10998047 11.47150391 29.80736328 12.34291016 30.52587891 13.24072266 C32.10009766 15.35009766 32.10009766 15.35009766 32.10009766 16.35009766 C12.96009766 16.35009766 -6.17990234 16.35009766 -25.89990234 16.35009766 C-24.01172901 12.57375099 -22.02195841 9.89009764 -19.33740234 6.66259766 C-18.53173828 5.68935547 -17.72607422 4.71611328 -16.89599609 3.71337891 C-12.59643674 -1.37709743 -6.34957487 0.04932485 0 0 Z " fill="#5F3209" transform="translate(409.89990234375,251.64990234375)"/>
<path d="M0 0 C8.25 0 16.5 0 25 0 C25 9.57 25 19.14 25 29 C16.75 29 8.5 29 0 29 C0 19.43 0 9.86 0 0 Z " fill="#F0C09E" transform="translate(400,194)"/>
<path d="M0 0 C-0.33 0.99 -0.66 1.98 -1 3 C-1.33 3 -1.66 3 -2 3 C-2 49.86 -2 96.72 -2 145 C-1.34 145.33 -0.68 145.66 0 146 C-1.32 146 -2.64 146 -4 146 C-4 148.31 -4 150.62 -4 153 C-4.33 153 -4.66 153 -5 153 C-5.18119474 143.771085 -5.34595874 134.54190495 -5.5 125.3125 C-5.51187725 124.60136299 -5.5237545 123.89022598 -5.53599167 123.15753937 C-5.99165465 95.563118 -6.08728755 67.97283803 -6.0625 40.375 C-6.06164398 39.41508274 -6.06078796 38.45516548 -6.05990601 37.46615982 C-6.0485748 25.64408698 -6.02858698 13.82204356 -6 2 C-2.25 0 -2.25 0 0 0 Z " fill="#EAD0B1" transform="translate(545,221)"/>
<path d="M0 0 C0.99 0 1.98 0 3 0 C3 47.19 3 94.38 3 143 C2.01 143.33 1.02 143.66 0 144 C0 96.48 0 48.96 0 0 Z " fill="#E9CFB1" transform="translate(281,222)"/>
<path d="M0 0 C0.33 0 0.66 0 1 0 C1 18.81 1 37.62 1 57 C2.32 57.33 3.64 57.66 5 58 C4.67 58.99 4.34 59.98 4 61 C3.90898856 62.43648686 3.87210646 63.87679581 3.87060547 65.31616211 C3.86745331 66.18393784 3.86430115 67.05171356 3.86105347 67.94578552 C3.8630777 68.88019974 3.86510193 69.81461395 3.8671875 70.77734375 C3.86575241 72.22168541 3.86575241 72.22168541 3.86428833 73.69520569 C3.86360774 75.73194443 3.86545362 77.76868535 3.86962891 79.80541992 C3.87497301 82.92176192 3.86968283 86.03795941 3.86328125 89.15429688 C3.86394217 91.13281282 3.86522361 93.11132867 3.8671875 95.08984375 C3.86516327 96.02223373 3.86313904 96.95462372 3.86105347 97.91526794 C3.86578171 99.22165977 3.86578171 99.22165977 3.87060547 100.55444336 C3.87140106 101.31816757 3.87219666 102.08189178 3.87301636 102.86875916 C4.00157141 105.02637392 4.40751755 106.92576007 5 109 C3.68 109 2.36 109 1 109 C1 128.14 1 147.28 1 167 C0.67 167 0.34 167 0 167 C0 111.89 0 56.78 0 0 Z " fill="#E8CEB0" transform="translate(344,211)"/>
<path d="M0 0 C0.33 0 0.66 0 1 0 C1 56.1 1 112.2 1 170 C0.67 170 0.34 170 0 170 C0 150.86 0 131.72 0 112 C-1.32 111.67 -2.64 111.34 -4 111 C-3.505 110.01 -3.505 110.01 -3 109 C-2.90996034 107.42708792 -2.88243491 105.85038425 -2.88647461 104.27490234 C-2.88655014 103.29403656 -2.88662567 102.31317078 -2.88670349 101.30258179 C-2.89186478 100.24108917 -2.89702606 99.17959656 -2.90234375 98.0859375 C-2.9037587 97.00116119 -2.90517365 95.91638489 -2.90663147 94.79873657 C-2.91224198 91.32413 -2.92479628 87.84958719 -2.9375 84.375 C-2.94251365 82.02343843 -2.94707679 79.67187585 -2.95117188 77.3203125 C-2.96221482 71.54685314 -2.97896321 65.77343112 -3 60 C-2.01 60 -1.02 60 0 60 C0 40.2 0 20.4 0 0 Z " fill="#E9CFB0" transform="translate(480,208)"/>
<path d="M0 0 C0.33 0 0.66 0 1 0 C1 20.13 1 40.26 1 61 C-4.28 61 -9.56 61 -15 61 C-15 60.67 -15 60.34 -15 60 C-10.71 60 -6.42 60 -2 60 C-2 43.5 -2 27 -2 10 C-6.29 10 -10.58 10 -15 10 C-15 9.67 -15 9.34 -15 9 C-11.37 9 -7.74 9 -4 9 C-3.67 7.35 -3.34 5.7 -3 4 C-1.5 1.6875 -1.5 1.6875 0 0 Z " fill="#E1CAAE" transform="translate(234,259)"/>
<path d="M0 0 C0.66 0.33 1.32 0.66 2 1 C1.175 1.495 0.35 1.99 -0.5 2.5 C-4.25736057 4.96912266 -7.19582579 8.13045064 -10.265625 11.390625 C-12 13 -12 13 -14 13 C-12.50838873 9.41207019 -10.46967132 7.35687162 -7.5625 4.8125 C-6.38880859 3.77029297 -6.38880859 3.77029297 -5.19140625 2.70703125 C-3 1 -3 1 0 0 Z " fill="#DABFA0" transform="translate(499,187)"/>
<path d="M0 0 C0.33 0 0.66 0 1 0 C1 2.97 1 5.94 1 9 C-0.65 9 -2.3 9 -4 9 C-3.47181039 5.19703482 -2.56226812 2.88255163 0 0 Z " fill="#F0BD98" transform="translate(234,259)"/>
</svg>
